<?xml version="1.0" standalone="no"?>
<!DOCTYPE svg PUBLIC "-//W3C//DTD SVG 20010904//EN"
 "http://www.w3.org/TR/2001/REC-SVG-20010904/DTD/svg10.dtd">
<svg version="1.0" xmlns="http://www.w3.org/2000/svg"
 width="367.000000pt" height="315.000000pt" viewBox="0 0 367.000000 315.000000"
 preserveAspectRatio="xMidYMid meet">
<metadata>
Created by potrace 1.14, written by Peter Selinger 2001-2017
</metadata>
<g transform="translate(0.000000,315.000000) scale(0.100000,-0.100000)"
fill="#000000" stroke="none">
<path d="M1760 2854 c-107 -8 -201 -28 -295 -64 -11 -4 -38 -13 -60 -20 -22
-7 -53 -18 -70 -25 -16 -7 -41 -16 -55 -19 -31 -7 -165 -91 -219 -137 -59 -51
-132 -104 -167 -122 -37 -19 -96 -83 -146 -157 -45 -67 -52 -91 -35 -114 12
-16 14 -16 41 9 34 32 50 21 31 -20 -47 -100 -78 -177 -90 -225 -8 -30 -22
-80 -31 -110 -21 -67 -33 -496 -15 -527 9 -16 11 -14 11 12 2 40 16 76 23 55
92 -287 158 -441 214 -506 14 -16 49 -58 78 -94 29 -36 65 -76 79 -90 15 -14
34 -39 42 -56 22 -45 110 -103 244 -159 208 -87 278 -105 430 -112 193 -8 260
7 462 108 87 44 184 96 215 116 55 35 102 55 205 90 49 17 108 65 108 90 0 10
-12 4 -37 -16 -33 -28 -93 -43 -93 -25 0 4 19 28 43 54 23 25 56 63 74 83 17
21 37 36 44 35 8 -2 15 12 19 34 4 20 23 67 42 105 36 67 73 166 88 233 4 19
17 76 29 125 18 77 19 98 9 146 -11 52 -10 59 10 83 11 15 24 40 27 57 l7 29
44 -45 c24 -25 44 -50 44 -55 0 -5 5 -12 10 -15 15 -10 40 58 40 109 0 101
-47 318 -92 425 -10 24 -16 51 -13 60 3 9 -7 36 -22 59 -27 41 -43 53 -43 32
0 -5 -5 -10 -11 -10 -6 0 -9 12 -6 28 2 15 2 21 0 15 -9 -26 -25 -12 -20 16 4
21 1 34 -13 46 -12 11 -20 13 -20 7 0 -21 -20 -13 -50 21 -27 30 -28 33 -12
46 16 12 15 13 -5 8 -15 -3 -30 4 -50 25 -48 51 -123 111 -131 104 -3 -4 0
-11 8 -16 24 -15 2 -24 -25 -10 -46 24 -35 5 35 -67 39 -40 70 -78 70 -85 0
-9 -3 -9 -8 -2 -20 30 -313 215 -422 266 -38 18 -68 38 -66 43 8 24 80 6 177
-44 55 -29 103 -50 106 -47 7 7 -31 39 -74 63 -18 10 -33 21 -33 25 0 12 55 9
67 -3 6 -6 19 -9 29 -7 14 2 6 11 -31 34 -28 16 -66 36 -85 44 -19 7 -65 26
-102 42 -67 28 -68 29 -119 12 -44 -15 -65 -15 -172 -5 -167 16 -214 18 -267
15z m407 -268 c68 -19 81 -26 193 -107 243 -174 436 -395 457 -524 3 -21 -1
-46 -11 -66 -34 -68 -10 -221 32 -204 44 18 51 17 58 -11 9 -36 -2 -300 -15
-339 -5 -16 -17 -57 -27 -90 -9 -33 -39 -106 -66 -162 -46 -96 -57 -110 -201
-256 -152 -154 -214 -203 -317 -247 -131 -56 -507 -77 -645 -36 -60 18 -148
44 -190 56 -163 47 -247 93 -344 188 -79 78 -117 138 -161 255 -11 28 -26 63
-32 77 -6 14 -15 36 -20 50 -6 14 -16 39 -23 55 -8 17 -17 40 -20 53 -6 19 -9
21 -22 11 -13 -11 -14 -5 -8 47 5 40 2 70 -7 94 -18 44 -17 253 1 330 48 205
164 423 293 551 43 43 213 157 282 188 26 12 73 27 105 32 31 6 106 22 166 36
61 14 135 29 165 33 79 12 296 4 357 -14z"/>
<path d="M1461 1808 c-58 -16 -115 -63 -145 -118 -26 -49 -29 -62 -34 -199 -5
-167 1 -191 48 -191 36 0 43 11 50 75 l5 50 155 0 155 0 3 -57 c3 -51 6 -59
27 -64 13 -3 32 -4 42 -2 17 3 18 20 21 248 2 221 1 246 -15 258 -20 15 -260
15 -312 0z m228 -92 c8 -9 11 -45 9 -98 l-3 -83 -157 -3 -158 -3 0 38 c0 73
50 136 121 153 60 14 175 12 188 -4z"/>
<path d="M1907 1813 c-4 -3 -7 -111 -7 -240 0 -220 1 -234 20 -253 19 -19 31
-20 233 -18 l212 3 0 45 0 45 -185 5 -185 5 -3 208 -2 207 -39 0 c-21 0 -41
-3 -44 -7z"/>
</g>
</svg>
